<?xml version="1.0" encoding="UTF-8" standalone="no"?>
<!-- Created with Inkscape (http://www.inkscape.org/) -->

<svg
   xmlns:dc="http://purl.org/dc/elements/1.1/"
   xmlns:cc="http://creativecommons.org/ns#"
   xmlns:rdf="http://www.w3.org/1999/02/22-rdf-syntax-ns#"
   xmlns:svg="http://www.w3.org/2000/svg"
   xmlns="http://www.w3.org/2000/svg"
   xmlns:xlink="http://www.w3.org/1999/xlink"
   xmlns:sodipodi="http://sodipodi.sourceforge.net/DTD/sodipodi-0.dtd"
   xmlns:inkscape="http://www.inkscape.org/namespaces/inkscape"
   width="79.375092mm"
   height="35.280865mm"
   viewBox="0 0 79.375092 35.280865"
   version="1.1"
   id="svg4950"
   inkscape:version="0.92.4 (5da689c313, 2019-01-14)"
   sodipodi:docname="balloon.svg">
  <defs
     id="defs4944" />
  <sodipodi:namedview
     id="base"
     pagecolor="#ffffff"
     bordercolor="#666666"
     borderopacity="1.0"
     inkscape:pageopacity="0.0"
     inkscape:pageshadow="2"
     inkscape:zoom="1.4"
     inkscape:cx="66.265478"
     inkscape:cy="-46.401915"
     inkscape:document-units="mm"
     inkscape:current-layer="layer1"
     showgrid="false"
     inkscape:window-width="1920"
     inkscape:window-height="1017"
     inkscape:window-x="-8"
     inkscape:window-y="-8"
     inkscape:window-maximized="1" />
  <metadata
     id="metadata4947">
    <rdf:RDF>
      <cc:Work
         rdf:about="">
        <dc:format>image/svg+xml</dc:format>
        <dc:type
           rdf:resource="http://purl.org/dc/dcmitype/StillImage" />
        <dc:title></dc:title>
      </cc:Work>
    </rdf:RDF>
  </metadata>
  <g
     inkscape:label="Layer 1"
     inkscape:groupmode="layer"
     id="layer1"
     transform="translate(-59.620149,-88.613595)">
    <g
       id="g5554"
       transform="matrix(0.42915935,0,0,0.42915935,56.688869,60.654118)">
      <rect
         ry="37.797619"
         y="65.678574"
         x="10.583333"
         height="75.595238"
         width="180.67261"
         id="rect4952"
         style="fill:#737881;fill-opacity:1;stroke:#000000;stroke-width:1.05833328;stroke-miterlimit:4;stroke-dasharray:none;stroke-opacity:1" />
      <use
         id="use4954"
         xlink:href="#rect4952"
         y="0"
         x="0"
         width="100%"
         height="100%" />
      <use
         x="0"
         y="0"
         xlink:href="#rect4952"
         id="use4956"
         width="100%"
         height="100%" />
      <rect
         style="fill:#ffffff;fill-opacity:1;stroke:#000000;stroke-width:1.05833328;stroke-miterlimit:4;stroke-dasharray:none;stroke-opacity:1"
         id="use4958"
         width="180.67261"
         height="75.595238"
         x="10.583333"
         y="65.678574"
         ry="37.797619" />
      <path
         sodipodi:nodetypes="cc"
         inkscape:connector-curvature="0"
         id="path5507"
         d="M 7.2760416,146.84896 19.654762,127.47768"
         style="fill:none;stroke:#000000;stroke-width:1.05799997;stroke-linecap:butt;stroke-linejoin:miter;stroke-miterlimit:4;stroke-dasharray:none;stroke-opacity:1" />
      <path
         sodipodi:nodetypes="cc"
         inkscape:connector-curvature="0"
         id="path5507-2"
         d="M 7.2760416,146.84896 35.671503,138.95871"
         style="fill:none;stroke:#000000;stroke-width:1.05799997;stroke-linecap:butt;stroke-linejoin:miter;stroke-miterlimit:4;stroke-dasharray:none;stroke-opacity:1" />
      <ellipse
         cx="29.860117"
         cy="131.87166"
         rx="11.339286"
         ry="7.606771"
         id="path5536"
         style="fill:#ffffff;fill-opacity:1;stroke:none;stroke-width:1.05799997;stroke-miterlimit:4;stroke-dasharray:none;stroke-opacity:1" />
    </g>
    <path
       style="fill:#ffffff;fill-opacity:1;stroke:none;stroke-width:2.8562429;stroke-miterlimit:4;stroke-dasharray:none;stroke-opacity:1"
       d="m 3.9797632,129.87253 c 0,-0.16663 4.0150354,-6.59612 8.9223008,-14.28775 l 8.922301,-13.98479 -2.409406,-3.156496 C 15.484073,93.293758 12.775578,88.061258 10.320914,80.874865 8.2715392,74.875008 7.9738999,73.006079 7.7069293,64.461201 7.4557134,56.420578 7.6543352,53.773764 8.902311,48.531666 14.266509,25.999455 31.160113,9.0415706 53.53709,3.7270498 59.475617,2.3166527 61.493683,2.2918406 154.82377,2.4817332 l 95.22742,0.1937531 5,1.6891362 c 21.54642,7.2789685 36.28848,23.1980425 41.52847,44.8441265 1.72716,7.134809 1.53321,20.353913 -0.40718,27.752452 -1.90604,7.267528 -6.91749,17.296371 -11.50962,23.032864 -8.15893,10.192165 -21.52273,18.318405 -34.43708,20.940455 -6.7658,1.37369 -9.67122,1.40903 -100,1.21653 l -93.031731,-0.19826 -5.357143,-1.57308 c -4.187496,-1.22963 -5.902978,-1.42541 -7.857143,-0.89671 -1.375,0.37202 -10.713548,2.93001 -20.752328,5.68444 -18.3940736,5.04694 -19.2476718,5.2556 -19.2476718,4.70509 z"
       id="path5556"
       inkscape:connector-curvature="0"
       transform="matrix(0.26458333,0,0,0.26458333,59.620149,88.613595)" />
  </g>
</svg>
