<?xml version="1.0" encoding="UTF-8" standalone="no"?>
<!-- Created with Inkscape (http://www.inkscape.org/) -->

<svg
   xmlns:dc="http://purl.org/dc/elements/1.1/"
   xmlns:cc="http://creativecommons.org/ns#"
   xmlns:rdf="http://www.w3.org/1999/02/22-rdf-syntax-ns#"
   xmlns:svg="http://www.w3.org/2000/svg"
   xmlns="http://www.w3.org/2000/svg"
   xmlns:sodipodi="http://sodipodi.sourceforge.net/DTD/sodipodi-0.dtd"
   xmlns:inkscape="http://www.inkscape.org/namespaces/inkscape"
   width="400"
   height="400"
   viewBox="0 0 105.83333 105.83334"
   version="1.1"
   id="svg8"
   inkscape:version="0.92.4 (5da689c313, 2019-01-14)"
   sodipodi:docname="batduck.svg">
  <defs
     id="defs2" />
  <sodipodi:namedview
     id="base"
     pagecolor="#ffffff"
     bordercolor="#666666"
     borderopacity="1.0"
     inkscape:pageopacity="0.0"
     inkscape:pageshadow="2"
     inkscape:zoom="1.979899"
     inkscape:cx="125.43708"
     inkscape:cy="205.11481"
     inkscape:document-units="mm"
     inkscape:current-layer="layer3"
     showgrid="false"
     units="px"
     inkscape:pagecheckerboard="true"
     inkscape:window-width="1920"
     inkscape:window-height="1017"
     inkscape:window-x="-8"
     inkscape:window-y="-8"
     inkscape:window-maximized="1" />
  <metadata
     id="metadata5">
    <rdf:RDF>
      <cc:Work
         rdf:about="">
        <dc:format>image/svg+xml</dc:format>
        <dc:type
           rdf:resource="http://purl.org/dc/dcmitype/StillImage" />
        <dc:title></dc:title>
      </cc:Work>
    </rdf:RDF>
  </metadata>
  <g
     inkscape:groupmode="layer"
     id="layer3"
     inkscape:label="Duck Guide 1">
    <g
       id="g1466">
      <path
         sodipodi:nodetypes="cacccccacc"
         inkscape:connector-curvature="0"
         id="rect1394"
         d="m 55.324791,37.946873 c 0,0 14.553184,2.313847 20.632802,6.122308 4.712175,2.951852 11.247831,12.318623 11.247831,12.318623 l -7.496156,-5.840541 6.55197,8.179816 -5.545843,-4.009042 2.271791,5.078118 c 0,0 -8.547553,-9.228804 -13.796645,-12.567236 C 65.855308,45.107703 58.241828,42.67527 58.241828,42.67527 Z"
         style="fill:#041f2a;fill-opacity:1;stroke:#000000;stroke-width:0.79399997;stroke-linecap:round;stroke-linejoin:miter;stroke-miterlimit:4;stroke-dasharray:none;stroke-dashoffset:0;stroke-opacity:1" />
      <g
         id="g1423"
         style="display:inline">
        <path
           style="fill:#041f2a;fill-opacity:1;stroke:#000000;stroke-width:0.79400003;stroke-linecap:round;stroke-linejoin:miter;stroke-miterlimit:4;stroke-dasharray:none;stroke-dashoffset:0;stroke-opacity:1"
           d="m 31.492186,16.571787 3.517859,8.551711 c 6.04165,-3.161804 10.791559,-1.652977 15.358061,-0.02055 l 3.490398,-8.767396 c 1.791416,8.867589 4.396394,17.133788 4.383324,26.339718 0,0 -6.174465,0.708626 -9.237057,1.22629 -9.325284,1.576232 -23.224951,14.000033 -27.790627,5.717519 -1.297384,-2.353562 5.589938,-5.809881 5.589938,-5.809881 0,0 -0.883906,-5.176886 -0.644876,-7.76216 0.619671,-6.702157 5.33298,-19.475251 5.33298,-19.475251 z"
           id="rect1390"
           inkscape:connector-curvature="0"
           sodipodi:nodetypes="cccccaacac" />
        <path
           style="fill:#ffffff;fill-opacity:1;stroke:#000000;stroke-width:0.26458332px;stroke-linecap:butt;stroke-linejoin:miter;stroke-opacity:1"
           d="m 40.925644,36.944613 8.084905,-2.071338 -3.641548,3.708365 z"
           id="path1403"
           inkscape:connector-curvature="0" />
        <path
           style="fill:#ffffff;fill-opacity:1;stroke:#000000;stroke-width:0.26458332px;stroke-linecap:butt;stroke-linejoin:miter;stroke-opacity:1"
           d="m 32.999074,36.673354 -8.084906,-2.071338 3.641549,3.708364 z"
           id="path1403-2"
           inkscape:connector-curvature="0" />
      </g>
    </g>
  </g>
</svg>
