<?xml version="1.0" encoding="UTF-8" standalone="no"?>
<!-- Created with Inkscape (http://www.inkscape.org/) -->

<svg
   xmlns:dc="http://purl.org/dc/elements/1.1/"
   xmlns:cc="http://creativecommons.org/ns#"
   xmlns:rdf="http://www.w3.org/1999/02/22-rdf-syntax-ns#"
   xmlns:svg="http://www.w3.org/2000/svg"
   xmlns="http://www.w3.org/2000/svg"
   xmlns:sodipodi="http://sodipodi.sourceforge.net/DTD/sodipodi-0.dtd"
   xmlns:inkscape="http://www.inkscape.org/namespaces/inkscape"
   width="400"
   height="400"
   viewBox="0 0 105.83333 105.83334"
   version="1.1"
   id="svg8"
   inkscape:version="0.92.4 (5da689c313, 2019-01-14)"
   sodipodi:docname="cowboy.svg">
  <defs
     id="defs2" />
  <sodipodi:namedview
     id="base"
     pagecolor="#ffffff"
     bordercolor="#666666"
     borderopacity="1.0"
     inkscape:pageopacity="0.0"
     inkscape:pageshadow="2"
     inkscape:zoom="1.979899"
     inkscape:cx="163.02208"
     inkscape:cy="403.86136"
     inkscape:document-units="mm"
     inkscape:current-layer="g913"
     showgrid="false"
     units="px"
     inkscape:pagecheckerboard="true"
     inkscape:window-width="1920"
     inkscape:window-height="1017"
     inkscape:window-x="-8"
     inkscape:window-y="-8"
     inkscape:window-maximized="1" />
  <metadata
     id="metadata5">
    <rdf:RDF>
      <cc:Work
         rdf:about="">
        <dc:format>image/svg+xml</dc:format>
        <dc:type
           rdf:resource="http://purl.org/dc/dcmitype/StillImage" />
        <dc:title />
      </cc:Work>
    </rdf:RDF>
  </metadata>
  <g
     inkscape:groupmode="layer"
     id="layer4"
     inkscape:label="merge">
    <g
       id="g913">
      <path
         sodipodi:nodetypes="ccacccc"
         inkscape:connector-curvature="0"
         id="path857"
         d="m 28.915178,24.095983 c 0.944941,0.236235 20.127234,1.370164 20.127234,1.370164 0,0 5.801919,-4.476356 7.701265,-2.55134 2.265022,2.295634 0.869145,7.276664 -3.165554,9.142299 -7.654017,1.606399 -16.914432,8.551712 -27.781247,4.015997 -8.273506,-5.598938 -2.42176,-15.828316 -0.236236,-15.284412 2.715284,0.743313 1.470191,2.24318 3.354538,3.307292 z"
         style="fill:#786721;fill-opacity:1;stroke:#000000;stroke-width:0.52916676;stroke-linecap:butt;stroke-linejoin:miter;stroke-miterlimit:4;stroke-dasharray:none;stroke-opacity:1" />
      <path
         sodipodi:nodetypes="aszzcsca"
         inkscape:connector-curvature="0"
         id="path852"
         d="m 35.199032,16.016743 c 1.690234,-0.409999 2.693081,3.827008 4.252234,3.023808 1.559148,-0.803199 2.989071,-3.228062 5.338911,-2.740327 2.34984,0.487735 2.832385,3.277168 3.590775,5.24442 0.75839,1.967252 0.850447,6.236607 0.850447,6.236607 0,0 -12.425969,1.842635 -16.016743,0.236237 -3.590771,-1.606401 -3.212796,-1.93713 -3.212796,-1.93713 0,0 1.528112,-9.173613 5.197172,-10.063615 z"
         style="fill:#786721;fill-opacity:1;stroke:#000000;stroke-width:0.52916676;stroke-linecap:butt;stroke-linejoin:miter;stroke-miterlimit:4;stroke-dasharray:none;stroke-opacity:1" />
      <path
         sodipodi:nodetypes="cccsccscc"
         inkscape:connector-curvature="0"
         id="path859"
         d="m 30.535908,25.180046 c 0,0 5.419077,1.892502 8.53738,1.798007 3.118305,-0.09449 9.808751,-1.090141 9.808751,-1.090141 0,0 0.198815,0.569933 0.06538,0.962239 -0.125555,0.369159 0.242215,0.69724 0.242215,0.69724 l -8.604444,1.226048 c 0,0 -4.540936,-0.187814 -6.681402,-0.73974 -1.652762,-0.426169 -3.651371,-1.894876 -3.651371,-1.894876 z"
         style="fill:#502d16;fill-opacity:1;stroke:none;stroke-width:0.26458332px;stroke-linecap:butt;stroke-linejoin:miter;stroke-opacity:1" />
    </g>
  </g>
</svg>
