<?xml version="1.0" encoding="UTF-8" standalone="no"?>
<!-- Created with Inkscape (http://www.inkscape.org/) -->

<svg
   xmlns:dc="http://purl.org/dc/elements/1.1/"
   xmlns:cc="http://creativecommons.org/ns#"
   xmlns:rdf="http://www.w3.org/1999/02/22-rdf-syntax-ns#"
   xmlns:svg="http://www.w3.org/2000/svg"
   xmlns="http://www.w3.org/2000/svg"
   xmlns:sodipodi="http://sodipodi.sourceforge.net/DTD/sodipodi-0.dtd"
   xmlns:inkscape="http://www.inkscape.org/namespaces/inkscape"
   width="400"
   height="400"
   viewBox="0 0 105.83333 105.83334"
   version="1.1"
   id="svg8"
   inkscape:version="0.92.4 (5da689c313, 2019-01-14)"
   sodipodi:docname="devil.svg">
  <defs
     id="defs2">
    <marker
       inkscape:stockid="Arrow1Lend"
       orient="auto"
       refY="0.0"
       refX="0.0"
       id="Arrow1Lend"
       style="overflow:visible;"
       inkscape:isstock="true">
      <path
         id="path861"
         d="M 0.0,0.0 L 5.0,-5.0 L -12.5,0.0 L 5.0,5.0 L 0.0,0.0 z "
         style="fill-rule:evenodd;stroke:#000000;stroke-width:1pt;stroke-opacity:1;fill:#ff0000;fill-opacity:1"
         transform="scale(0.8) rotate(180) translate(12.5,0)" />
    </marker>
    <marker
       inkscape:stockid="Arrow2Lstart"
       orient="auto"
       refY="0.0"
       refX="0.0"
       id="Arrow2Lstart"
       style="overflow:visible"
       inkscape:isstock="true">
      <path
         id="path876"
         style="fill-rule:evenodd;stroke-width:0.625;stroke-linejoin:round;stroke:#000000;stroke-opacity:1;fill:#ff0000;fill-opacity:1"
         d="M 8.7185878,4.0337352 L -2.2072895,0.016013256 L 8.7185884,-4.0017078 C 6.9730900,-1.6296469 6.9831476,1.6157441 8.7185878,4.0337352 z "
         transform="scale(1.1) translate(1,0)" />
    </marker>
  </defs>
  <sodipodi:namedview
     id="base"
     pagecolor="#ffffff"
     bordercolor="#666666"
     borderopacity="1.0"
     inkscape:pageopacity="0.0"
     inkscape:pageshadow="2"
     inkscape:zoom="1.979899"
     inkscape:cx="275.45408"
     inkscape:cy="230.89193"
     inkscape:document-units="mm"
     inkscape:current-layer="layer2"
     showgrid="false"
     units="px"
     inkscape:pagecheckerboard="true"
     inkscape:window-width="1920"
     inkscape:window-height="1017"
     inkscape:window-x="-8"
     inkscape:window-y="-8"
     inkscape:window-maximized="1" />
  <metadata
     id="metadata5">
    <rdf:RDF>
      <cc:Work
         rdf:about="">
        <dc:format>image/svg+xml</dc:format>
        <dc:type
           rdf:resource="http://purl.org/dc/dcmitype/StillImage" />
        <dc:title></dc:title>
      </cc:Work>
    </rdf:RDF>
  </metadata>
  <g
     inkscape:groupmode="layer"
     id="layer2"
     inkscape:label="Accessory">
    <path
       style="fill:#ff0000;stroke:#000000;stroke-width:0.52916667;stroke-linecap:butt;stroke-linejoin:round;stroke-opacity:1;stroke-miterlimit:4;stroke-dasharray:none"
       d="m 30.134637,28.09131 c -0.156556,1.714053 3.662619,2.386188 5.078122,0.935442 1.415503,-1.450746 -2.238383,-1.77066 -1.436574,-6.848781 0.801809,-5.07812 1.746348,-4.833728 -0.100223,-3.407686 -1.814145,1.401 -2.773989,3.868386 -3.407687,6.113791 -0.290625,1.029781 -0.133636,3.207234 -0.133636,3.207234 0,0 -2e-6,-1e-6 -2e-6,0 z"
       id="path33"
       inkscape:connector-curvature="0"
       sodipodi:nodetypes="czzsccc" />
    <path
       style="fill:#ff0000;stroke:#000000;stroke-width:0.52916673;stroke-linecap:round;stroke-linejoin:round;stroke-miterlimit:4;stroke-dasharray:none;stroke-opacity:1;stroke-dashoffset:0"
       d="m 48.167115,28.17345 c 0.144031,1.714053 -3.369614,2.386188 -4.671878,0.935442 -1.302264,-1.450746 2.059315,-1.77066 1.32165,-6.848781 -0.737665,-5.07812 -1.606642,-4.833728 0.0922,-3.407686 1.669015,1.401 2.552073,3.868386 3.135076,6.113791 0.267375,1.029781 0.122945,3.207234 0.122945,3.207234 0,0 2e-6,-10e-7 2e-6,0 z"
       id="path33-5"
       inkscape:connector-curvature="0"
       sodipodi:nodetypes="czzsccc" />
    <path
       style="fill:#ff0000;stroke:#000000;stroke-width:0.26458332px;stroke-linecap:butt;stroke-linejoin:miter;stroke-opacity:1"
       d="m 77.674107,48.947919 c 0,0 5.433406,-4.48847 8.740698,-3.07106 3.307291,1.41741 7.890254,5.76414 7.890254,5.76414 0,0 1.653645,1.37016 3.63802,1.13393 1.984375,-0.23624 2.126121,-0.85045 2.126121,-0.85045 l -2.173368,-0.47247 4.960938,-1.65364 -1.55915,4.86644 -0.56696,-2.03162 c 0,0 -1.420795,1.60532 -3.071063,1.60639 -1.650268,0.001 -1.984375,0.0945 -5.953125,-3.1183 -3.96875,-3.2128 -5.754664,-4.05739 -7.228795,-4.06325 -1.47413,-0.006 -5.995815,2.92445 -5.995815,2.92445 z"
       id="path1212"
       inkscape:connector-curvature="0"
       sodipodi:nodetypes="csccccccczszcc" />
  </g>
</svg>
